<svg xmlns="http://www.w3.org/2000/svg" viewBox="0 0 64 64" role="img" aria-labelledby="title">
  <title>Helado Nube</title>
  <circle cx="32" cy="32" r="31" fill="#F8F1E8"/>
  <path d="M18.5 27.5c0-5.2 4.1-9.4 9.2-9.4 1.7 0 3.3.5 4.7 1.3A10.3 10.3 0 0 1 51 25.6c0 5.8-4.7 10.4-10.4 10.4H26.9c-4.7 0-8.4-3.8-8.4-8.5Z" fill="#76283C"/>
  <path d="M25.2 35.5h14.9L33.7 53a1.8 1.8 0 0 1-3.4 0l-5.1-17.5Z" fill="#211A17"/>
  <path d="m27.8 40 9.1 6M25.9 45.2l8.8 5.7M36.6 37.2l-8.4 6" fill="none" stroke="#F8F1E8" stroke-width="1.2" stroke-linecap="round" opacity=".7"/>
  <circle cx="47.5" cy="18" r="3.5" fill="#211A17"/>
</svg>
